<svg width="18" height="19" viewBox="0 0 18 19" fill="none" xmlns="http://www.w3.org/2000/svg">
<path fill-rule="evenodd" clip-rule="evenodd" d="M13.8449 0.617297C13.6906 1.28592 13.0871 2.41595 12.5931 2.96135C12.1131 3.49132 11.3146 4.02296 10.5887 4.29619L9.92651 4.54539L10.5347 4.76024C11.9824 5.27167 13.2593 6.63486 13.738 8.18002L13.9989 9.02199L14.1464 8.42323C14.3632 7.54239 14.7116 6.90487 15.3743 6.17668C16.0232 5.46356 16.6288 5.05095 17.4568 4.75773L18 4.56536L17.3742 4.30098C16.4668 3.9178 16.0211 3.60305 15.366 2.88311C14.7065 2.15827 14.3625 1.52386 14.1406 0.622202L13.9873 0L13.8449 0.617297ZM5.3969 3.685C5.28514 4.0537 4.9556 4.84949 4.66462 5.45351C3.74151 7.37012 2.02211 8.88848 0.534764 9.10034L0 9.17655L0.88007 9.44034C2.84993 10.0308 4.32254 11.7012 5.24785 14.3949L5.6225 15.4853L5.82877 14.7951C6.16717 13.6633 6.89772 12.2209 7.54701 11.4028C8.34547 10.3967 9.23613 9.77016 10.3379 9.43998L11.2191 9.17571L10.7264 9.10704C9.85952 8.98622 8.64289 8.26496 7.89519 7.42862C6.90957 6.3261 6.46954 5.49418 5.67798 3.23626C5.61986 3.07045 5.54907 3.18362 5.3969 3.685ZM12.2823 12.4302C12.1214 13.11 11.4942 14.1829 10.9855 14.6482C10.7051 14.9047 10.2128 15.2166 9.89164 15.3411L9.30749 15.5676L10.0238 15.9016C10.9234 16.3213 11.768 17.2454 12.1034 18.1774C12.2345 18.5415 12.3446 18.9047 12.348 18.9845C12.3514 19.0642 12.4469 18.8285 12.56 18.4606C12.9421 17.2197 13.8723 16.1569 14.8644 15.8279C15.354 15.6656 15.5838 15.4808 15.2961 15.4808C14.9547 15.4808 14.0314 14.9278 13.5679 14.4459C13.0895 13.9485 12.7317 13.3081 12.5083 12.5498L12.3673 12.0713L12.2823 12.4302Z" fill="#FFDC26"/>
</svg>
