<?xml version="1.0" encoding="UTF-8" standalone="no" ?>
<!DOCTYPE svg PUBLIC "-//W3C//DTD SVG 1.1//EN" "http://www.w3.org/Graphics/SVG/1.1/DTD/svg11.dtd">
<svg xmlns="http://www.w3.org/2000/svg" xmlns:xlink="http://www.w3.org/1999/xlink" version="1.1" width="1080" height="1080" viewBox="0 0 1080 1080" xml:space="preserve">
<desc>Created with Fabric.js 5.2.4</desc>
<defs>
</defs>
<g transform="matrix(1 0 0 1 540 540)" id="d1edf54a-96a5-4fbf-b42d-c730fa2131f3"  >
</g>
<g transform="matrix(1 0 0 1 540 540)" id="acadabf0-6c7d-41c9-a52c-c7fcc2d93ac3"  >
<rect style="stroke: none; stroke-width: 1; stroke-dasharray: none; stroke-linecap: butt; stroke-dashoffset: 0; stroke-linejoin: miter; stroke-miterlimit: 4; fill: rgb(255,255,255); fill-rule: nonzero; opacity: 1; visibility: hidden;" vector-effect="non-scaling-stroke"  x="-540" y="-540" rx="0" ry="0" width="1080" height="1080" />
</g>
<g transform="matrix(1 0 0 1 540 540)"  >
<g style="" vector-effect="non-scaling-stroke"   >
		<g transform="matrix(1 0 0 1 -225.51 77.44)"  >
<path style="stroke: none; stroke-width: 1; stroke-dasharray: none; stroke-linecap: butt; stroke-dashoffset: 0; stroke-linejoin: miter; stroke-miterlimit: 4; fill: rgb(255,220,38); fill-rule: nonzero; opacity: 1;" vector-effect="non-scaling-stroke"  transform=" translate(-30.5, -333.43)" d="M 59 325.39 C 64.93 346.47999999999996 57 367.15 41.230000000000004 371.61 C 25.460000000000008 376.07000000000005 7.91 362.57 2 341.47 C -3.91 320.37000000000006 4 299.69000000000005 19.77 295.25 C 35.54 290.80999999999995 53.08 304.28 59 325.39 Z" stroke-linecap="round" />
</g>
		<g transform="matrix(1 0 0 1 -184.74 8.77)"  >
<path style="stroke: none; stroke-width: 1; stroke-dasharray: none; stroke-linecap: butt; stroke-dashoffset: 0; stroke-linejoin: miter; stroke-miterlimit: 4; fill: rgb(255,220,38); fill-rule: nonzero; opacity: 1;" vector-effect="non-scaling-stroke"  transform=" translate(-71.28, -264.76)" d="M 98.72 257 C 104.55 277.66 96.98 297.84000000000003 81.82 302.15 C 66.65999999999998 306.4599999999999 49.629999999999995 293.15 43.81999999999999 272.5 C 38.00999999999999 251.85000000000002 45.589999999999996 231.67000000000002 60.74999999999999 227.37 C 75.91 223.07 92.89 236.42 98.72 257 Z" stroke-linecap="round" />
</g>
		<g transform="matrix(1 0 0 1 -114.3 -2.46)"  >
<path style="stroke: none; stroke-width: 1; stroke-dasharray: none; stroke-linecap: butt; stroke-dashoffset: 0; stroke-linejoin: miter; stroke-miterlimit: 4; fill: rgb(255,220,38); fill-rule: nonzero; opacity: 1;" vector-effect="non-scaling-stroke"  transform=" translate(-141.72, -253.54)" d="M 168.85 245.89 C 174.78 266.97999999999996 167.48 287.51 152.5 291.73 C 137.52 295.95000000000005 120.6 282.26 114.61 261.20000000000005 C 108.62 240.1400000000001 116 219.61 131 215.36 C 146 211.11 162.89 224.81 168.85 245.89 Z" stroke-linecap="round" />
</g>
		<g transform="matrix(1 0 0 1 -47.61 43.46)"  >
<path style="stroke: none; stroke-width: 1; stroke-dasharray: none; stroke-linecap: butt; stroke-dashoffset: 0; stroke-linejoin: miter; stroke-miterlimit: 4; fill: rgb(255,220,38); fill-rule: nonzero; opacity: 1;" vector-effect="non-scaling-stroke"  transform=" translate(-208.41, -299.46)" d="M 236.9 291.43 C 242.52 311.43 234.34 331.19 218.63 335.62 C 202.92 340.05 185.63 327.46 179.95 307.51 C 174.26999999999998 287.56 182.48 267.75 198.22 263.31 C 213.96 258.87 231.26 271.46 236.9 291.43 Z" stroke-linecap="round" />
</g>
		<g transform="matrix(1 0 0 1 -122.22 121.31)"  >
<path style="stroke: none; stroke-width: 1; stroke-dasharray: none; stroke-linecap: butt; stroke-dashoffset: 0; stroke-linejoin: miter; stroke-miterlimit: 4; fill: rgb(255,220,38); fill-rule: nonzero; opacity: 1;" vector-effect="non-scaling-stroke"  transform=" translate(-133.8, -377.3)" d="M 97.58 447.24 C 97.58 447.24 48.58 462.24 51.25 399.24 C 57.803396385358816 384.34142368093654 66.34800364154356 370.4009305826572 76.64999999999995 357.80000000000007 C 76.65 357.8 90.23 336.05 92.65 328.22 C 92.65 328.22 108.84 286.72 146.44 316.65000000000003 C 146.44 316.65000000000003 178 347.04 190.1 350.29 C 190.1 350.29 231.14999999999998 375.29 210.76999999999998 412.55 C 210.76999999999998 412.55 190.76999999999998 435.21000000000004 172.76999999999998 425.55 C 172.78 425.54 128.33 405.36 97.58 447.24 Z" stroke-linecap="round" />
</g>
		<g transform="matrix(1 0 0 1 51.78 -111.14)"  >
<path style="stroke: none; stroke-width: 1; stroke-dasharray: none; stroke-linecap: butt; stroke-dashoffset: 0; stroke-linejoin: miter; stroke-miterlimit: 4; fill: rgb(255,220,38); fill-rule: nonzero; opacity: 1;" vector-effect="non-scaling-stroke"  transform=" translate(-307.79, -144.86)" d="M 336.91 150.43 C 332.8 171.95000000000002 316.42 186.91 300.31 183.81 C 284.2 180.71 274.58 160.81 278.69 139.28 C 282.8 117.75 299.18 102.83 315.26 105.91 C 331.34 108.99 341 128.92 336.91 150.43 Z" stroke-linecap="round" />
</g>
		<g transform="matrix(1 0 0 1 118.97 -154.26)"  >
<path style="stroke: none; stroke-width: 1; stroke-dasharray: none; stroke-linecap: butt; stroke-dashoffset: 0; stroke-linejoin: miter; stroke-miterlimit: 4; fill: rgb(255,220,38); fill-rule: nonzero; opacity: 1;" vector-effect="non-scaling-stroke"  transform=" translate(-374.98, -101.73)" d="M 403 107.1 C 399 128.18 383.15 142.85 367.67 139.89 C 352.19000000000005 136.92999999999998 342.9 117.44 347 96.37 C 351.1 75.30000000000001 366.83 60.620000000000005 382.3 63.57000000000001 C 397.77000000000004 66.52000000000001 407 86 403 107.1 Z" stroke-linecap="round" />
</g>
		<g transform="matrix(1 0 0 1 187.02 -132.78)"  >
<path style="stroke: none; stroke-width: 1; stroke-dasharray: none; stroke-linecap: butt; stroke-dashoffset: 0; stroke-linejoin: miter; stroke-miterlimit: 4; fill: rgb(255,220,38); fill-rule: nonzero; opacity: 1;" vector-effect="non-scaling-stroke"  transform=" translate(-443.03, -123.22)" d="M 470.7 128.54 C 466.56 150.04 450.84999999999997 165.10999999999999 435.55 162.18 C 420.25000000000006 159.25000000000003 411.24 139.44 415.38 117.94 C 419.52 96.44 435.21 81.33 450.5 84.25999999999999 C 465.79 87.18999999999998 474.81 107 470.7 128.54 Z" stroke-linecap="round" />
</g>
		<g transform="matrix(1 0 0 1 226.06 -61.86)"  >
<path style="stroke: none; stroke-width: 1; stroke-dasharray: none; stroke-linecap: butt; stroke-dashoffset: 0; stroke-linejoin: miter; stroke-miterlimit: 4; fill: rgb(255,220,38); fill-rule: nonzero; opacity: 1;" vector-effect="non-scaling-stroke"  transform=" translate(-482.07, -194.13)" d="M 511.15 199.67 C 507.25 220.07999999999998 491.15 234.08999999999997 475.03 231.02999999999997 C 458.90999999999997 227.96999999999997 449.13 209 453 188.56 C 456.87 168.12 473.09 154.17000000000002 489.15 157.24 C 505.21 160.31 515 179.32 511.15 199.67 Z" stroke-linecap="round" />
</g>
		<g transform="matrix(1 0 0 1 113.53 -26.96)"  >
<path style="stroke: none; stroke-width: 1; stroke-dasharray: none; stroke-linecap: butt; stroke-dashoffset: 0; stroke-linejoin: miter; stroke-miterlimit: 4; fill: rgb(255,220,38); fill-rule: nonzero; opacity: 1;" vector-effect="non-scaling-stroke"  transform=" translate(-369.54, -229.04)" d="M 316.82 276.66 C 316.82 276.66 266.35 268.18 296.89 213.01000000000002 C 309.41590817064537 202.6115165997285 323.2960999165645 193.96246837414486 338.15 187.3 C 338.15 187.3 360 173.94 365.73 168 C 365.73 168 398.73 138.15 419.02000000000004 181.74 C 419.02000000000004 181.74 433.63000000000005 223.06 443.02000000000004 231.39000000000001 C 443.02000000000004 231.39000000000001 468.52000000000004 272.14 433.63000000000005 296.32000000000005 C 433.63000000000005 296.32000000000005 405.58000000000004 307.62000000000006 393.7900000000001 290.9200000000001 C 393.79 290.92 363 253 316.82 276.66 Z" stroke-linecap="round" />
</g>
</g>
</g>
<g transform="matrix(NaN NaN NaN NaN 0 0)"  >
<g style=""   >
</g>
</g>
<g transform="matrix(NaN NaN NaN NaN 0 0)"  >
<g style=""   >
</g>
</g>
</svg>